<?xml version="1.0" encoding="UTF-8" standalone="no"?>
<!-- Created with Inkscape (http://www.inkscape.org/) -->

<svg
   version="1.1"
   id="svg1"
   width="1291"
   height="1002"
   viewBox="0 0 1291 1002"
   sodipodi:docname="bvrt_c_1.png"
   inkscape:version="1.4 (86a8ad7, 2024-10-11)"
   xmlns:inkscape="http://www.inkscape.org/namespaces/inkscape"
   xmlns:sodipodi="http://sodipodi.sourceforge.net/DTD/sodipodi-0.dtd"
   xmlns="http://www.w3.org/2000/svg"
   xmlns:svg="http://www.w3.org/2000/svg">
  <defs
     id="defs1" />
  <sodipodi:namedview
     id="namedview1"
     pagecolor="#ffffff"
     bordercolor="#000000"
     borderopacity="0.25"
     inkscape:showpageshadow="2"
     inkscape:pageopacity="0.0"
     inkscape:pagecheckerboard="0"
     inkscape:deskcolor="#d1d1d1"
     showgrid="false"
     inkscape:zoom="1.1220557"
     inkscape:cx="631.87596"
     inkscape:cy="511.11546"
     inkscape:window-width="1920"
     inkscape:window-height="1013"
     inkscape:window-x="1781"
     inkscape:window-y="1791"
     inkscape:window-maximized="1"
     inkscape:current-layer="g1" />
  <g
     inkscape:groupmode="layer"
     inkscape:label="Image"
     id="g1">
    <path
       style="fill:#000000"
       d="m 491.3752,691.79807 c -1.26542,-2.04749 -1.23744,-310.67133 0.0283,-311.69317 0.6031,-0.4869 3.79654,-1.13872 7.09654,-1.44849 3.3,-0.30977 9.825,-1.04024 14.5,-1.62326 4.675,-0.58303 10.75,-1.28797 13.5,-1.56654 4.77951,-0.48416 14.44751,-1.71148 15.5,-1.96768 0.46075,-0.11216 9.62957,-1.13211 18,-2.00234 1.925,-0.20013 6.2,-0.64413 9.5,-0.98667 3.3,-0.34254 6.59883,-0.82221 7.33074,-1.06595 0.73191,-0.24374 13.10691,-1.82377 27.5,-3.51118 14.39309,-1.68741 27.06926,-3.21988 28.16926,-3.40549 1.1,-0.18561 11.225,-1.49938 22.5,-2.91948 11.275,-1.4201 27.25,-3.46109 35.5,-4.53552 8.25,-1.07444 17.475,-2.23064 20.5,-2.56934 3.025,-0.33871 6.85,-0.79818 8.5,-1.02105 21.19595,-2.86307 35.48895,-4.66923 47.5,-6.00245 7.975,-0.88522 15.93422,-1.8285 17.68715,-2.09617 2.45617,-0.37506 3.42827,-0.0361 4.23847,1.47773 0.84342,1.57594 1.4347,167.78961 1.08646,305.41373 -0.0139,5.48627 -0.89148,6.11005 -10.09374,7.17449 -11.22292,1.29817 -28.62091,3.64637 -34.05147,4.59592 -3.09822,0.54173 -13.22322,1.86729 -22.5,2.94569 -9.27678,1.0784 -20.01687,2.42095 -23.86687,2.98345 -3.85,0.56249 -12.625,1.69488 -19.5,2.51641 -22.33603,2.66906 -28.25633,3.39655 -44.5,5.46825 -8.8,1.12233 -21.85,2.74787 -29,3.6123 -7.15,0.86444 -19.075,2.42382 -26.5,3.46529 -7.425,1.04148 -18,2.3844 -23.5,2.98427 -9.04486,0.98651 -27.80801,3.36509 -47.29085,5.99501 -9.84827,1.32939 -16.93121,1.2429 -17.83395,-0.21776 z M 511,687.1153 c 5.225,-0.60363 11.75,-1.35814 14.5,-1.67671 2.75,-0.31856 11.975,-1.47704 20.5,-2.57439 8.525,-1.09736 20.675,-2.62197 27,-3.38803 6.325,-0.76606 14.875,-1.85259 19,-2.4145 17.86847,-2.43407 30.52643,-3.96167 45.5,-5.49108 8.8,-0.89883 19.375,-2.13127 23.5,-2.73874 4.125,-0.60747 8.4677,-1.2236 9.65045,-1.36919 1.18274,-0.14558 2.98274,-0.52018 4,-0.83245 1.01725,-0.31227 4.32455,-0.79168 7.34955,-1.06535 3.025,-0.27368 10.45,-1.12082 16.5,-1.88253 6.05,-0.76172 11.9,-1.40962 13,-1.43979 2.34124,-0.0642 23.88793,-2.82137 34,-4.35071 17.35847,-2.62527 28.28338,-3.88355 33.66096,-3.87691 1.46354,0.002 3.77606,-0.42068 5.13896,-0.93885 l 2.47798,-0.94213 0.0691,-152.11446 c 0.0616,-135.7236 -0.0959,-152.17778 -1.46244,-152.70216 -1.33911,-0.51386 -41.69631,4.05864 -72.38454,8.20122 -5.775,0.77957 -18.375,2.35702 -28,3.50545 -9.625,1.14843 -18.85,2.29336 -20.5,2.54429 -11.10402,1.68869 -15.71044,2.30992 -21,2.83213 -6.96626,0.68773 -16.44813,1.9092 -36,4.63756 -19.63994,2.74066 -33.98805,4.50127 -64.5,7.91459 -23.42214,2.6202 -48.12138,5.88182 -48.70558,6.43175 -0.24325,0.22897 -0.44089,129.90378 -0.35508,232.97073 l 0.0607,72.85503 3.75,-0.49864 c 2.0625,-0.27425 8.025,-0.99251 13.25,-1.59613 z"
       id="path1" />
  </g>
</svg>
