<?xml version="1.0" encoding="UTF-8" standalone="no"?>
<!-- Created with Inkscape (http://www.inkscape.org/) -->

<svg
   version="1.1"
   id="svg1"
   width="1297"
   height="998"
   viewBox="0 0 1297 998"
   sodipodi:docname="bvrt_c_2.png"
   inkscape:version="1.4 (86a8ad7, 2024-10-11)"
   xmlns:inkscape="http://www.inkscape.org/namespaces/inkscape"
   xmlns:sodipodi="http://sodipodi.sourceforge.net/DTD/sodipodi-0.dtd"
   xmlns="http://www.w3.org/2000/svg"
   xmlns:svg="http://www.w3.org/2000/svg">
  <defs
     id="defs1" />
  <sodipodi:namedview
     id="namedview1"
     pagecolor="#ffffff"
     bordercolor="#000000"
     borderopacity="0.25"
     inkscape:showpageshadow="2"
     inkscape:pageopacity="0.0"
     inkscape:pagecheckerboard="0"
     inkscape:deskcolor="#d1d1d1"
     inkscape:zoom="0.79659319"
     inkscape:cx="649.01384"
     inkscape:cy="499"
     inkscape:window-width="1920"
     inkscape:window-height="1013"
     inkscape:window-x="1781"
     inkscape:window-y="1791"
     inkscape:window-maximized="1"
     inkscape:current-layer="g1" />
  <g
     inkscape:groupmode="layer"
     inkscape:label="Image"
     id="g1">
    <path
       style="fill:#000000"
       d="m 582.39227,659.23595 c -35.73981,-0.30336 -32.25877,0.74924 -37.17079,-11.23977 -1.69092,-4.1271 -4.6259,-10.8771 -6.52219,-15 C 536.803,628.87328 533.33365,621.225 530.98962,616 528.6456,610.775 523.86402,600.27584 520.36388,592.66853 516.86375,585.06123 514,578.62349 514,578.36245 c 0,-0.26105 -1.38985,-3.26189 -3.08855,-6.66854 -1.69871,-3.40665 -4.12154,-8.89391 -5.38408,-12.19391 -1.26254,-3.3 -4.13501,-9.66365 -6.38325,-14.14144 -2.24825,-4.47779 -5.03775,-10.55167 -6.19889,-13.4975 -1.16114,-2.94584 -2.47443,-5.80719 -2.91843,-6.35856 C 488.69778,523.85207 482,507.1 482,505.42637 c 0,-0.85262 1.18335,-4.10985 2.62966,-7.2383 C 486.07597,495.05963 488.51238,489.8 490.0439,486.5 495.37502,475.0129 499,466.94748 499,466.57305 c 0,-0.20727 1.85193,-4.3585 4.11541,-9.22495 6.76328,-14.54102 8.50933,-18.39729 12.83553,-28.3481 2.27162,-5.225 5.23695,-11.67903 6.58964,-14.34229 1.35268,-2.66325 2.45942,-5.243 2.45942,-5.73276 0,-0.48976 1.96095,-5.06073 4.35766,-10.15771 2.39671,-5.09698 5.1543,-11.06724 6.12798,-13.26724 0.97368,-2.2 3.02081,-6.7 4.5492,-10 1.52838,-3.3 4.01433,-8.925 5.52433,-12.5 4.69701,-11.12036 -5.06362,-10.04814 88.80876,-9.75579 L 716.5,353.5 l 3.05936,6 c 1.68265,3.3 3.7796,7.82027 4.65989,10.04504 0.8803,2.22477 3.62739,8.29977 6.10465,13.5 2.47726,5.20023 7.64613,16.42996 11.48637,24.95496 11.03228,24.49072 12.21063,27.08158 15.69097,34.5 1.80623,3.85 5.39659,11.725 7.97859,17.5 2.582,5.775 5.10531,10.9275 5.60736,11.45 0.50205,0.5225 0.91281,1.60028 0.91281,2.39507 0,1.36434 2.72181,7.44065 10.62197,23.71299 l 3.42666,7.05807 -3.10577,6.94193 c -1.70818,3.81807 -4.41912,9.6775 -6.02432,13.02097 -1.6052,3.34346 -2.91854,6.42946 -2.91854,6.85776 0,0.42831 -2.96433,7.14275 -6.5874,14.92098 -7.31888,15.71262 -11.16575,24.13576 -12.39595,27.14223 -0.45009,1.1 -2.61132,5.825 -4.80271,10.5 -2.1914,4.675 -4.8918,10.525 -6.0009,13 -1.1091,2.475 -3.63575,7.9747 -5.61479,12.22155 -1.97904,4.24685 -3.59825,7.93551 -3.59825,8.19703 0,0.43877 -4.56287,10.55199 -9.0603,20.08142 -1.0383,2.2 -3.2786,7.45656 -4.97845,11.68125 -1.69985,4.22468 -3.66032,8.15404 -4.3566,8.7319 -1.3285,1.10256 -74.82226,1.82692 -134.21238,1.3228 z m 131.2234,-3.96991 c 1.47007,-1.00938 5.04564,-8.12812 7.92542,-15.77897 1.2725,-3.38072 3.20753,-7.91083 4.30007,-10.06692 1.09253,-2.15608 5.23286,-11.12015 9.20072,-19.92015 3.96786,-8.8 9.44623,-20.725 12.17415,-26.5 2.72792,-5.775 5.83197,-12.75 6.89789,-15.5 1.06593,-2.75 3.01186,-7.25 4.32431,-10 4.89,-10.24618 10.38566,-22.2265 13.53234,-29.5 1.78457,-4.125 4.49691,-10.2 6.02743,-13.5 4.55928,-9.83045 4.57081,-9.49332 -0.69215,-20.24728 -2.64322,-5.40098 -5.4419,-11.37983 -6.21929,-13.28634 -0.77739,-1.90651 -3.36489,-7.61735 -5.75,-12.69076 C 762.95145,463.2022 761,458.8019 761,458.49716 c 0,-0.30473 -1.51559,-3.80376 -3.36798,-7.77561 -1.85239,-3.97185 -4.50166,-9.69655 -5.88727,-12.72155 -1.38561,-3.025 -3.86954,-8.425 -5.51984,-12 -3.12727,-6.77452 -11.64504,-25.51373 -15.90899,-35 -4.17334,-9.2847 -5.94577,-13.13054 -10.71791,-23.25595 C 717.06911,362.37828 715,357.54078 715,356.99405 715,356.34349 686.99467,356 633.95392,356 h -81.04608 l -3.86941,8.25 c -2.12817,4.5375 -7.32529,15.9 -11.54916,25.25 -8.90691,19.71644 -10.23264,22.63454 -14.42846,31.75882 C 521.35138,424.97618 518.17402,432.05971 516,437 c -2.17402,4.94029 -5.26139,11.79882 -6.86082,15.24118 -1.59944,3.44235 -4.96579,10.98382 -7.48078,16.75882 -6.46781,14.85157 -6.63267,15.21444 -11.95374,26.31125 l -4.79534,10.00042 5.13337,12.09417 c 2.82336,6.65179 6.49536,15.01916 8.16001,18.59416 1.66465,3.575 4.15679,8.975 5.5381,12 1.3813,3.025 3.84853,8.37501 5.48272,11.88892 1.63419,3.5139 4.44703,9.8139 6.25076,14 1.80373,4.18609 4.41223,10.08608 5.79666,13.11108 2.41991,5.28752 10.95674,24.18669 14.68038,32.5 0.98541,2.2 3.26946,7.15 5.07567,11 1.8062,3.85 4.58305,10.14551 6.17078,13.99003 1.58772,3.84452 3.51278,7.94545 4.27791,9.11319 l 1.39114,2.12315 79.81659,0.15286 c 43.89912,0.0841 80.31864,-0.19186 80.93226,-0.61319 z"
       id="path1" />
  </g>
</svg>
